<?xml version="1.0" encoding="UTF-8"?>
<svg xmlns="http://www.w3.org/2000/svg" xmlns:xlink="http://www.w3.org/1999/xlink" width="24px" height="24px" viewBox="0 0 24 23" version="1.1">
<g id="surface1">
<path style=" stroke:none;fill-rule:nonzero;fill:rgb(34.901961%,58.823529%,21.176471%);fill-opacity:1;" d="M 11.046875 2.992188 L 11.566406 3.925781 C 11.683594 4.097656 11.808594 4.253906 11.957031 4.394531 C 12.394531 4.808594 12.804688 5.25 13.179688 5.71875 C 14.058594 6.824219 14.652344 8.058594 15.078125 9.390625 C 15.332031 10.203125 15.472656 11.039062 15.480469 11.882812 C 15.523438 14.40625 14.621094 16.570312 12.800781 18.371094 C 12.507812 18.65625 12.1875 18.917969 11.847656 19.15625 C 11.664062 19.15625 11.582031 19.023438 11.507812 18.902344 C 11.371094 18.675781 11.28125 18.425781 11.242188 18.167969 C 11.175781 17.863281 11.132812 17.558594 11.15625 17.242188 L 11.15625 17.101562 C 11.140625 17.070312 10.980469 3.0625 11.046875 2.992188 Z M 11.046875 2.992188 "/>
<path style=" stroke:none;fill-rule:nonzero;fill:rgb(42.352941%,67.45098%,28.235294%);fill-opacity:1;" d="M 11.046875 2.960938 C 11.023438 2.917969 11.003906 2.949219 10.980469 2.96875 C 10.992188 3.171875 10.917969 3.355469 10.800781 3.53125 C 10.671875 3.703125 10.503906 3.835938 10.332031 3.976562 C 9.390625 4.761719 8.648438 5.707031 8.050781 6.765625 C 7.261719 8.1875 6.851562 9.714844 6.734375 11.320312 C 6.683594 11.902344 6.925781 13.945312 7.117188 14.535156 C 7.636719 16.101562 8.574219 17.417969 9.78125 18.554688 C 10.078125 18.828125 10.398438 19.085938 10.726562 19.328125 C 10.820312 19.328125 10.832031 19.246094 10.855469 19.1875 C 10.894531 19.054688 10.929688 18.921875 10.949219 18.789062 L 11.164062 17.265625 Z M 11.046875 2.960938 "/>
<path style=" stroke:none;fill-rule:nonzero;fill:rgb(76.078431%,74.901961%,74.901961%);fill-opacity:1;" d="M 11.566406 19.773438 C 11.585938 19.542969 11.703125 19.347656 11.832031 19.15625 C 11.703125 19.105469 11.609375 19.003906 11.535156 18.890625 C 11.46875 18.785156 11.417969 18.671875 11.375 18.554688 C 11.226562 18.128906 11.195312 17.679688 11.152344 17.242188 L 11.152344 16.976562 C 11.097656 17.019531 11.089844 17.363281 11.089844 17.417969 C 11.058594 17.878906 10.992188 18.335938 10.898438 18.789062 C 10.867188 18.972656 10.84375 19.15625 10.726562 19.316406 C 10.726562 19.339844 10.726562 19.359375 10.738281 19.390625 C 10.929688 19.929688 10.980469 20.476562 11.011719 21.039062 L 11.011719 21.242188 C 11.011719 21.484375 11.003906 21.433594 11.214844 21.515625 C 11.300781 21.546875 11.394531 21.558594 11.480469 21.617188 C 11.542969 21.617188 11.554688 21.566406 11.554688 21.527344 L 11.523438 21.191406 L 11.523438 20.253906 C 11.511719 20.089844 11.542969 19.929688 11.566406 19.777344 Z M 11.566406 19.773438 "/>
</g>
</svg>
